<svg xmlns="http://www.w3.org/2000/svg" viewBox="0 0 15.499 15.78">
  <path id="path" d="M115.147,212.188a7.3,7.3,0,0,1,5.5-2.288,7.745,7.745,0,0,1,7.75,7.89,7.882,7.882,0,0,1-2.247,5.6,7.3,7.3,0,0,1-5.5,2.288,7.745,7.745,0,0,1-7.75-7.89A7.75,7.75,0,0,1,115.147,212.188Zm1.085,10.02a5.939,5.939,0,0,0,4.34,1.894,5.815,5.815,0,0,0,4.34-1.894,6.152,6.152,0,0,0,1.86-4.418,6.415,6.415,0,0,0-6.2-6.312,5.816,5.816,0,0,0-4.34,1.894,6.153,6.153,0,0,0-1.86,4.418A6.859,6.859,0,0,0,116.232,222.208Zm4.8-8.442v4.1l3.487,2.13-.62,1.026-4.03-2.525v-4.734Z" transform="translate(-112.9 -209.9)" fill="currentColor"/>
</svg>
