<svg xmlns="http://www.w3.org/2000/svg" viewBox="0 0 162.018 123.239">
  <path 
  id="Subtraction_5" 
  data-name="Subtraction 5" 
  d="M99.252,123.239h0L80.618,104.679,124.26,61.037h-3.825L59.976,
  121.906.509,62.006,0,61.518,61.492,0,80.464,18.615,23.058,75.853l1.93,
  1.955,76.03-76.349,19.418,19v21.7H143.09l18.928,18.878ZM130,60.919l-43.3,
  43.61,12.864,12.393,55.533-56H130Zm-28.2-12.942L50.2,99.94l12.628,12.629,
  51.846-51.61H101.806V47.977Zm-.153-9.226-56.9,56.388,1.937,2.141,
  54.96-55.062Zm0-31.354L29.359,79.283,41.6,92.335l60.058-59.752V7.4ZM61.376,
  5.944h0L7.844,60.164,20.488,72.808,74.428,18.894,61.376,5.944Z" 
  transform="translate(0 0)" fill="currentColor"/>
</svg>
