<svg xmlns="http://www.w3.org/2000/svg" viewBox="0 0 49.109 49.107">
  <path id="Icon_material-payment" data-name="Icon material-payment" d="M31.961,6H6.218a3.238,3.238,0,0,0-3.2,3.305L3,29.136a3.251,3.251,0,0,0,3.218,3.305H31.961a3.251,3.251,0,0,0,3.218-3.305V9.305A3.251,3.251,0,0,0,31.961,6Zm0,23.136H6.218V19.221H31.961Zm0-16.526H6.218V9.305H31.961Z" transform="translate(5.821 5.76)" fill="currentColor"/>
  <path id="Path_2405" data-name="Path 2405" d="M55.813,240.44a24.554,24.554,0,1,1,24.554-24.554A24.582,24.582,0,0,1,55.813,240.44Zm0-47.113a22.559,22.559,0,1,0,22.56,22.559A22.585,22.585,0,0,0,55.813,193.328Z" transform="translate(-31.258 -191.333)" fill="currentColor"/>
</svg>
