<svg xmlns="http://www.w3.org/2000/svg" viewBox="0 0 49.109 49.107">
  <g id="booking" transform="translate(-227.723 -385.375)">
    <g id="Group_341" data-name="Group 341" transform="translate(234 393)">
      <path id="Icon_metro-share" data-name="Icon metro-share" d="M27.217,24.324a4.337,4.337,0,0,0-3.281,1.553L11.642,19.022a5.673,5.673,0,0,0,0-1.611l12.295-6.856a4.338,4.338,0,0,0,3.281,1.553,4.849,4.849,0,0,0,4.564-5.09,4.849,4.849,0,0,0-4.564-5.09,4.849,4.849,0,0,0-4.564,5.09,5.7,5.7,0,0,0,.058.806L10.416,14.679a4.338,4.338,0,0,0-3.281-1.553,4.849,4.849,0,0,0-4.564,5.09,4.849,4.849,0,0,0,4.564,5.09,4.338,4.338,0,0,0,3.281-1.553l12.295,6.856a5.7,5.7,0,0,0-.058.806,4.849,4.849,0,0,0,4.564,5.09,4.849,4.849,0,0,0,4.564-5.09,4.849,4.849,0,0,0-4.564-5.09Z" transform="translate(-2.571 -1.928)" fill="currentColor"/>
    </g>
  </g>
  <path id="Path_2404" data-name="Path 2404" d="M55.813,240.44a24.554,24.554,0,1,1,24.554-24.554A24.582,24.582,0,0,1,55.813,240.44Zm0-47.113a22.559,22.559,0,1,0,22.56,22.559A22.585,22.585,0,0,0,55.813,193.328Z" transform="translate(-31.258 -191.333)" fill="currentColor"/>
</svg>
