<svg xmlns="http://www.w3.org/2000/svg" viewBox="0 0 49.109 49.107">
  <path 
    d="M25.834,24.492V23.166a6.981,6.981,0,0,0,3.877-5.972c0-3.994,
    0-7.231-5.816-7.231S18.08,13.2,18.08,17.195a6.981,6.981,0,0,0,
    3.877,5.972v1.325c-6.576.446-11.631,3.124-11.631,
    6.362H37.465c0-3.238-5.055-5.917-11.631-6.362Zm-13.352.621a20.72,20.72,
    0,0,1,6.051-2.019,9.219,9.219,0,0,1-1.226-1.482A8.012,8.012,0,0,1,15.9,
    17.195c0-2.16,0-4.2.927-5.869a6.292,6.292,0,0,1,
    4.823-3c-.512-1.92-1.876-3.182-5.507-3.182-5.816,0-5.816,3.238-5.816,
    7.231A6.981,6.981,0,0,0,14.2,18.346v1.325c-6.576.446-11.631,3.124-11.631,
    6.362h8.451a12.471,12.471,0,0,1,1.46-.921Z" transform="translate(4.44 5.617)" 
    fill="currentColor"/>
  <path 
    d="M55.813,240.44a24.554,24.554,0,1,1,24.554-24.554A24.582,24.582,0,0,
    1,55.813,240.44Zm0-47.113a22.559,22.559,0,1,0,22.56,22.559A22.585,22.585,
    0,0,0,55.813,193.328Z" 
    transform="translate(-31.258 -191.333)" 
    fill="currentColor"/>
</svg>
