<svg xmlns="http://www.w3.org/2000/svg" viewBox="0 0 31 24">
  <path id="Icon_awesome-ticket-alt" 
  data-name="Icon awesome-ticket-alt" 
  d="M6.889,10.5H24.111v12H6.889Zm21.528,6A2.815,2.815,
  0,0,0,31,19.5v6a2.815,2.815,0,0,1-2.583,3H2.583A2.815,
  2.815,0,0,1,0,25.5v-6a2.815,2.815,0,0,0,2.583-3A2.815,
  2.815,0,0,0,0,13.5v-6a2.815,2.815,0,0,1,2.583-3H28.417A2.815,
  2.815,0,0,1,31,7.5v6A2.815,2.815,0,0,0,28.417,16.5ZM25.833,10a1.408,
  1.408,0,0,0-1.292-1.5H6.458A1.408,1.408,0,0,0,5.167,10V23a1.408,
  1.408,0,0,0,1.292,1.5H24.542c.713,0,1.292-1.5,1.292-1.5Z" 
  transform="translate(0 -4.5)" fill="currentColor"/>
</svg>
