<svg xmlns="http://www.w3.org/2000/svg" xmlns:xlink="http://www.w3.org/1999/xlink" viewBox="0 0 53.012 53.01">
  <defs>
    <linearGradient id="linear-gradient" x1="-0.733" y1="-1.018" x2="0.669" y2="0.708" gradientUnits="objectBoundingBox">
      <stop offset="0" stop-color="#5252b6"/>
      <stop offset="1" stop-color="#cb0367"/>
    </linearGradient>
  </defs>
  <path id="Icon_awesome-calendar-alt" data-name="Icon awesome-calendar-alt" d="M0,28.777a2.886,2.886,0,0,0,2.783,2.977h20.41a2.886,2.886,0,0,0,2.783-2.977V11.908H0ZM18.555,16.621a.723.723,0,0,1,.7-.744H21.57a.723.723,0,0,1,.7.744V19.1a.723.723,0,0,1-.7.744H19.25a.723.723,0,0,1-.7-.744Zm0,7.939a.723.723,0,0,1,.7-.744H21.57a.723.723,0,0,1,.7.744v2.481a.723.723,0,0,1-.7.744H19.25a.723.723,0,0,1-.7-.744Zm-7.422-7.939a.723.723,0,0,1,.7-.744h2.319a.723.723,0,0,1,.7.744V19.1a.723.723,0,0,1-.7.744H11.829a.723.723,0,0,1-.7-.744Zm0,7.939a.723.723,0,0,1,.7-.744h2.319a.723.723,0,0,1,.7.744v2.481a.723.723,0,0,1-.7.744H11.829a.723.723,0,0,1-.7-.744ZM3.711,16.621a.723.723,0,0,1,.7-.744H6.726a.723.723,0,0,1,.7.744V19.1a.723.723,0,0,1-.7.744H4.407a.723.723,0,0,1-.7-.744Zm0,7.939a.723.723,0,0,1,.7-.744H6.726a.723.723,0,0,1,.7.744v2.481a.723.723,0,0,1-.7.744H4.407a.723.723,0,0,1-.7-.744ZM23.193,3.969H20.41V.992A.964.964,0,0,0,19.482,0H17.627A.964.964,0,0,0,16.7.992V3.969H9.277V.992A.964.964,0,0,0,8.35,0H6.494a.964.964,0,0,0-.928.992V3.969H2.783A2.886,2.886,0,0,0,0,6.946V9.923H25.976V6.946A2.886,2.886,0,0,0,23.193,3.969Z" transform="translate(13.993 9.653)" fill="#cb0367"/>
  <path id="Path_2265" data-name="Path 2265" d="M57.764,244.343A26.505,26.505,0,1,1,84.27,217.838,26.536,26.536,0,0,1,57.764,244.343Zm0-50.857a24.352,24.352,0,1,0,24.353,24.352A24.38,24.38,0,0,0,57.764,193.486Z" transform="translate(-31.258 -191.333)" fill="url(#linear-gradient)"/>
</svg>
