<svg xmlns="http://www.w3.org/2000/svg" viewBox="0 0 53.012 53.01">
  <path id="Icon_material-favorite" data-name="Icon material-favorite" d="M20.333,37.361,17.82,35C8.893,26.634,3,21.118,3,14.349A9.6,9.6,0,0,1,12.533,4.5a10.248,10.248,0,0,1,7.8,3.743,10.248,10.248,0,0,1,7.8-3.743,9.6,9.6,0,0,1,9.533,9.849c0,6.769-5.893,12.285-14.82,20.666Z" transform="translate(6.333 7.41)" fill="#3054b8"/>
  <path id="Path_2261" data-name="Path 2261" d="M57.764,244.343A26.505,26.505,0,1,1,84.27,217.838,26.536,26.536,0,0,1,57.764,244.343Zm0-50.857a24.352,24.352,0,1,0,24.353,24.352A24.38,24.38,0,0,0,57.764,193.486Z" transform="translate(-31.258 -191.333)" fill="#3054b8"/>
</svg>
