<svg xmlns="http://www.w3.org/2000/svg" xmlns:xlink="http://www.w3.org/1999/xlink" viewBox="0 0 53.012 53.01">
  <defs>
    <linearGradient id="linear-gradient" x1="-0.733" y1="-1.018" x2="0.669" y2="0.708" gradientUnits="objectBoundingBox">
      <stop offset="0" stop-color="#5252b6"/>
      <stop offset="1" stop-color="#cb0367"/>
    </linearGradient>
  </defs>
  <path id="Icon_awesome-history" data-name="Icon awesome-history" d="M32.605,16.718A16.142,16.142,0,0,1,16.6,32.935,15.854,15.854,0,0,1,6.529,29.352a1.576,1.576,0,0,1-.119-2.324l.728-.735a1.542,1.542,0,0,1,2.06-.129,11.763,11.763,0,0,0,7.386,2.6,12.01,12.01,0,0,0,0-24.019A11.781,11.781,0,0,0,8.44,8l3.279,3.313a1.046,1.046,0,0,1-.731,1.783H1.6A1.039,1.039,0,0,1,.563,12.05V2.561a1.032,1.032,0,0,1,1.765-.738l3.19,3.222A15.882,15.882,0,0,1,16.584.563,16.1,16.1,0,0,1,32.605,16.718ZM20.918,21.861l.635-.824a1.577,1.577,0,0,0-.272-2.2l-2.629-2.066V9.961A1.559,1.559,0,0,0,17.1,8.395H16.067a1.558,1.558,0,0,0-1.55,1.566v8.854l4.226,3.32a1.54,1.54,0,0,0,2.176-.275Z" transform="translate(10.383 10.67)" fill="#cb0367"/>
  <path id="Path_2268" data-name="Path 2268" d="M57.764,244.343A26.505,26.505,0,1,1,84.27,217.838,26.536,26.536,0,0,1,57.764,244.343Zm0-50.857a24.352,24.352,0,1,0,24.353,24.352A24.38,24.38,0,0,0,57.764,193.486Z" transform="translate(-31.258 -191.333)" fill="url(#linear-gradient)"/>
</svg>
