<svg xmlns="http://www.w3.org/2000/svg" xmlns:xlink="http://www.w3.org/1999/xlink" viewBox="0 0 53.012 53.01">
  <defs>
    <linearGradient id="linear-gradient" x1="-0.733" y1="-1.018" x2="0.669" y2="0.708" gradientUnits="objectBoundingBox">
      <stop offset="0" stop-color="#5252b6"/>
      <stop offset="1" stop-color="#cb0367"/>
    </linearGradient>
  </defs>
  <path id="path" d="M32.927,23.072V18.124A7.741,7.741,0,0,1,26.9,12.093H11.124a7.741,7.741,0,0,1-6.031,6.031v4.948A7.741,7.741,0,0,1,11.124,29.1H26.9A7.741,7.741,0,0,1,32.927,23.072Zm0,3.2A4.652,4.652,0,0,0,30.1,29.1h2.05a.777.777,0,0,0,.779-.779V26.274Zm-27.835,0v2.05a.777.777,0,0,0,.779.779h2.05A4.652,4.652,0,0,0,5.093,26.274ZM30.1,12.093a4.652,4.652,0,0,0,2.829,2.829v-2.05a.777.777,0,0,0-.779-.779Zm-22.176,0H5.871a.777.777,0,0,0-.779.779v2.049a4.652,4.652,0,0,0,2.829-2.828ZM2,12.872A3.87,3.87,0,0,1,5.871,9H32.149a3.87,3.87,0,0,1,3.871,3.872V28.323A3.87,3.87,0,0,1,32.149,32.2H5.871A3.87,3.87,0,0,1,2,28.323ZM19.01,26.783A6.185,6.185,0,1,1,25.2,20.6,6.185,6.185,0,0,1,19.01,26.783Zm0-3.093A3.093,3.093,0,1,0,15.917,20.6,3.093,3.093,0,0,0,19.01,23.69Z" transform="translate(7.979 5.227)" fill="#cb0367"/>
  <path id="Path_2267" data-name="Path 2267" d="M57.764,244.343A26.505,26.505,0,1,1,84.27,217.838,26.536,26.536,0,0,1,57.764,244.343Zm0-50.857a24.352,24.352,0,1,0,24.353,24.352A24.38,24.38,0,0,0,57.764,193.486Z" transform="translate(-31.258 -191.333)" fill="url(#linear-gradient)"/>
</svg>
