<svg xmlns="http://www.w3.org/2000/svg" viewBox="0 0 69.091 64">
    <path id="Path_126" data-name="Path 126" d="M14.545,0h40A14.545,14.545,0,0,1,69.091,14.545V49.455A14.545,14.545,0,0,1,54.545,64h-40A14.545,14.545,0,0,1,0,49.455V14.545A14.545,14.545,0,0,1,14.545,0Z" fill="#872e90"/>
    <g id="cannabis" transform="translate(10.553 8)">
        <path id="Path_31" data-name="Path 31" d="M49.055,30.914a.938.938,0,0,0-.784-.676l-5.5-.8a21.914,21.914,0,0,0-6.795.065q.82-.73,1.569-1.526a23.951,23.951,0,0,0,4.864-7.648l2.266-5.752a.866.866,0,0,0-.264-.989,1.007,1.007,0,0,0-1.076-.125l-5.79,2.82A25.577,25.577,0,0,0,30.224,21.6a21.775,21.775,0,0,0,.519-4.727,22.132,22.132,0,0,0-2.335-9.837L25.4,1.018a.985.985,0,0,0-1.735,0L20.661,7.035c-.143.286-.282.58-.412.871a.883.883,0,0,0,.512,1.181.981.981,0,0,0,1.255-.482c.12-.269.248-.539.38-.8l2.139-4.28L26.673,7.8a20.4,20.4,0,0,1,2.153,9.07A20.141,20.141,0,0,1,27.444,24.2l-.992,2.549a23.712,23.712,0,0,0-1.911,4.591,23.745,23.745,0,0,0-1.954-4.67l-.961-2.47a20.127,20.127,0,0,1-1.263-9.515.918.918,0,0,0-.855-.99.946.946,0,0,0-1.052.8,21.779,21.779,0,0,0,.386,7.078,25.6,25.6,0,0,0-7.3-5.3l-5.79-2.819a1,1,0,0,0-1.076.125.866.866,0,0,0-.264.989l2.267,5.752a23.949,23.949,0,0,0,4.864,7.649q.748.8,1.569,1.526a21.914,21.914,0,0,0-6.795-.065l-5.5.8a.939.939,0,0,0-.785.676.875.875,0,0,0,.362.941L4.87,34.963A21.192,21.192,0,0,0,12.2,38.208a21.514,21.514,0,0,0,2.666.439A11.4,11.4,0,0,0,13.254,40.8l-1.681,2.9a.857.857,0,0,0,.065.96.979.979,0,0,0,.777.373,1.023,1.023,0,0,0,.173-.015l3.453-.594a12.128,12.128,0,0,0,4.806-1.91,11.279,11.279,0,0,0,2.731-2.631v5.773a.96.96,0,0,0,1.917,0v-5.79a11.282,11.282,0,0,0,2.744,2.648,12.128,12.128,0,0,0,4.806,1.91l3.453.594a1.02,1.02,0,0,0,.173.015.98.98,0,0,0,.777-.373.858.858,0,0,0,.065-.96l-1.682-2.9a11.39,11.39,0,0,0-1.616-2.156,21.449,21.449,0,0,0,2.666-.439,21.185,21.185,0,0,0,7.335-3.245l4.481-3.108a.875.875,0,0,0,.362-.941ZM26.062,33.051a21.875,21.875,0,0,1,2-5.295.878.878,0,0,0,.131-.228l.019-.049a22.424,22.424,0,0,1,3.3-4.527,23.677,23.677,0,0,1,6.919-5.07l3.589-1.748L40.61,19.7a22.176,22.176,0,0,1-4.5,7.08,23.717,23.717,0,0,1-6.139,4.67q-.272.136-.54.279A24.952,24.952,0,0,1,26.121,33.1l-.077.026ZM8.472,19.7,7.067,16.135l3.589,1.748a23.67,23.67,0,0,1,6.919,5.069,22.175,22.175,0,0,1,5.445,10.1l.018.075-.077-.025a24.99,24.99,0,0,1-3.307-1.371q-.269-.143-.541-.279a23.723,23.723,0,0,1-6.139-4.67,22.182,22.182,0,0,1-4.5-7.081ZM6.008,33.511,3.381,31.689l3.224-.469a19.824,19.824,0,0,1,7.348.292,19.315,19.315,0,0,1,4.3,1.552q.225.119.454.234a19.38,19.38,0,0,1,4.027,2.865,20.176,20.176,0,0,1-10.069.293,19.225,19.225,0,0,1-6.655-2.945Zm13.714,7.544a10.165,10.165,0,0,1-4.028,1.6l-1.476.254.719-1.239a9.453,9.453,0,0,1,2.61-2.911,22.541,22.541,0,0,0,4.963-.66,9.5,9.5,0,0,1-2.789,2.959Zm13.666,1.6a10.161,10.161,0,0,1-4.027-1.6A9.5,9.5,0,0,1,26.572,38.1a22.523,22.523,0,0,0,4.964.66,9.457,9.457,0,0,1,2.61,2.911l.719,1.239Zm9.687-9.142a19.224,19.224,0,0,1-6.655,2.945,20.184,20.184,0,0,1-10.069-.293A19.4,19.4,0,0,1,30.378,33.3q.227-.114.452-.232a19.289,19.289,0,0,1,4.3-1.553,19.824,19.824,0,0,1,7.348-.292l3.224.469Zm0,0" transform="translate(0 -0.5)" fill="#fff"/>
        <path id="Path_32" data-name="Path 32" d="M199.743,114.795a1.236,1.236,0,1,0-.874-.362A1.239,1.239,0,0,0,199.743,114.795Zm0,0" transform="translate(-179.702 -102.389)" fill="#fff"/>
    </g>
</svg>
